<svg version="1.1" preserveAspectRatio="none" xmlns="http://www.w3.org/2000/svg" width="500" height="500" viewBox="0 0 500 500"><rect width="100%" height="100%" fill="#C8E3DF" fill-opacity="1"/><svg viewBox="506.8012 529.3812 569.3034 104.8" width="333" height="61.30017842858483" x="83.5px" y="219.3499px" xmlns="http://www.w3.org/2000/svg" xmlns:xlink="http://www.w3.org/1999/xlink" preserveAspectRatio="none"><defs></defs><style>.companyName {fill:#559092;fill-opacity:1;}.icon1 {fill:#559092;fill-opacity:1;}.icon2 {fill:#FBFBFB;fill-opacity:1;}.icon3 {fill:#185759;fill-opacity:1;}.icon3-str {stroke:#185759;stroke-opacity:1;}.text {fill:#559092;fill-opacity:1;}</style><g opacity="1" transform="rotate(0 506.8012 529.3812)">
<svg width="170.7037" height="104.8" x="506.8012" y="529.3812" version="1.1" preserveAspectRatio="none" viewBox="20.379833221435547 50.57583999633789 159.6248779296875 97.99839782714844">
  <g transform="matrix(1 0 0 1 0 0)"><g><path d="M109.2 120.1c-.3-1.2 0-2.4-.8-3.3-.3-.3.2-.9.8-.8.5.1.9.4 1.2.9.6.9 1.5 1.5 2.5 1.9.3.1.6.2.8-.1.2-.3 0-.5-.1-.7-.4-1.1-.2-1.8.6-2.6.6-.6 1.4-.8 2.1-1.1.6-.3 1.5.5 1.4 1.4 0 .9.4 1.4 1 1.9.8.6 1.5 1.4 2 2.3.5.9.7 1 1.6.7 1.2-.3 1.3-.2 1.3 1v.2c.8 1 .2 1.6-.5 2.3-2 2-3.6 4.4-5.4 6.6-2.4 2.9-5.1 5.3-8.3 7.3-2 1.3-4.1 2.5-6.2 3.7-3 1.7-6.3 2.5-9.8 3-3 .4-5.9.4-8.9-.1-1.9-.3-3.9-.6-5.6-1.5-.5-.3-1.1-.4-1.7-.6-.3-.1-.6-.1-.6-.5 0-.3 0-.6.3-.8 1.4-.6 2.1-2.1 3.4-2.8.3-.2.4-.4.4-.7.2-1.5 1-2.7 1.9-3.9.4-.5.5-.9.4-1.5-.2-1.3.2-2.5.9-3.5.5-.8 1.4-1.3 2.3-1.1 1 .2 2 .8 2.4 1.9.1.4 0 1 .5 1 .6 0 .5-.7.7-1.1.6-2 1.2-4 2.5-5.7.2-.3.3-.6.3-1-.1-1.5.9-2.6 1.6-3.8.3-.6 1.2-.6 2-.3.8.4 1.3 1.1 1.2 1.9 0 .3-.1.5-.2.7-.2.4-.1.7.4.9.6.2 1 .6 1.5 1 .4.4.8.4 1.3.1.5-.4 1-.7 1.6-1.1 1.7-1.1 3.7-1.7 5.5-2.6.4-.1.9.3 1.7.5zm8.7 6.1c-.6 0-.9.3-1.3.7-.5.5-1.1.8-1.8.2-.1.3-.1.4-.1.5 0 .4-.1.8-.6.8s-.5-.5-.5-.9c-.1-.8-.4-1.6-1-2.2-1.3-1.5-3.3-1.7-4.6-.5-1.3 1.3-2.1 2.8-2.4 4.6-.1.7-.2 1.3-.3 2 0 .4-.2.6-.5.8-.4.2-.7.1-.6-.4.1-.7.2-1.3.3-2 .1-.7.4-1.4.4-2.1-.8 0-1.2.6-1.6 1-.4.3-.8.7-.9 1.2-.1.4.4.7.6 1.1.1.2.1.3.2.5 0 .2 0 .4-.2.5-1.4.7-2-1.2-3-1.6-1.1-.4-2.6.3-3.4 1.1-1.4 1.5-2.4 3.3-3 5.3-.1.2-.1.4-.2.6-.1.2-.3.4-.5.3-.2 0-.4-.2-.4-.4 0-.6 0-1.2.3-1.8.1-.3.4-.6.1-1-.8.3-1.5 0-2.2-.5-.8-.7-.1-1.6-.2-2.4-.5.1-.7.6-1.1.8-.5.3-.4.6-.1 1 .7.8 1.2 1.7 1.8 2.6.3.4 0 1-.4 1.2-.4.2-.6-.2-.8-.5-.1-.2-.2-.5-.3-.7-.8-1.5-2-2.6-3.5-3.4-.5-.2-1-.4-1.4.1-1.3 1.6-2.5 3.3-2.9 5.4-.1.6 0 1.2 0 1.8 0 .3 0 .5-.3.6-.3.1-.6.1-.8-.2-.1-.1-.1-.4-.4-.4-.1.1-.3.2-.4.4-.2.2-.5.4-.4.7.1.3.4.2.7.2h.5c2.6-.1 5.1-.5 7.7-.4.3 0 .6-.1.9-.1 3.6-1 7.2-2.2 10.6-3.8 2.6-1.2 5.1-2.6 7.5-4 1.8-1 3.7-2.1 5.4-3.3 1.6-1 3.1-2.2 4.7-3.2.2.1.4 0 .4-.2.5.1.7-.4 1-.6.2-.1.3-.3 0-.5-.2-.2-.5-.2-.6.1-.1.3-.4.6-.4 1zM82 142.7c1.9.7 3.9.9 6 1 4.6.2 9-.5 13.3-2.4 3.1-1.3 5.9-3.2 8.7-5 3.6-2.3 6.5-5.4 9-8.9.1-.2.4-.3.2-.6-.3.2-.7.4-1 .6-3 2.3-6.2 4.3-9.4 6.2-5.2 3.1-10.6 5.8-16.4 7.6-1.7.5-3.3 1.5-5.1.8h-.4l-3.9.3c-.5.1-.8.1-1 .4zm24.8-21.7c-2.2.6-3.9 1.6-5.5 2.8-.5.4-1 .8-.6 1.6.1.2.2.5-.2.6-.3.1-.5-.1-.7-.3l-1.6-1.6c-.5-.4-.9-.8-1.7-.7.3 1.1-.1 2-.6 2.8-.4.5-.5 1.2-.8 1.7-.3.5-.3.8.1 1.2.5.5.5.5.8-.1.4-1 1.1-1.8 1.9-2.5.5-.4.9-.5 1.5-.4.8.2.9.4.5 1.1-.4.6-.8 1.1-1.3 1.8.8.2 1.6 0 2.2.4.5.3.8-.1 1.2-.5.3-.3.4-.6 0-1-.3-.3-.1-.7 0-1 .2-.9.7-1.6 1.4-2.1.4-.3.8-.6 1.3-.4.4.2.2.7.3 1v.4c0 .3.3.4.5.4.6-.1 1.2-1.1.9-1.6-.5-.9-.5-1.7-.1-2.5.1-.2.2-.6.5-1.1zm-20.9 8.1c-.1 0-.2-.1-.2-.1-.6 0-1.1.4-1.2 1-.1.6.3.8.9.8.6.1 1 .5 1.5.7.5.2.7.1.9-.4.2-1.1-.5-2-1.9-2zm31.9-10.7c-.7-.7-1.1-.6-1.7-.4-1.4.6-1.7 2.1-2.8 3-.1 0-.1.2-.1.2-.1.7-.2 1.4-.4 2.1.6-.7 1-1.4 1.4-2.1.9-1.2 1.6-2.7 3.6-2.8zm-7.8 2.3c-.1.6 0 1.1.1 1.6s.8 1 1.3.9c.6-.1.5-.6.6-1 .1-.6 0-1-.7-1.1-.3 0-.7-.4-1.3-.4zm6.8-5.2c-.4.9-.4.9-1.1.5-.8-.4-1.4 0-1.5 1 0 .6.2.8.8.5.6-.3 1.1-.6 1.6-.9.5-.3.4-.7.2-1.1zm5.2 6.3c-.2-.1-.2-.1-.3-.1-1 .2-1.6 1.4-1.4 2.8.8-.8 1.1-1.8 1.7-2.7zm-14.6.7c.5-.2.6-.6 1.1-.7.2 0 .5 0 .5-.4 0-.2-.2-.4-.4-.4-.3-.1-.5.1-.6.3-.2.4-.4.7-.6 1.2zm-11.7.8c-.6 0-1 0-1.4.3.7.6.7.6 1.4-.3zm20.6 2.4c.6-.5 1-1 1.2-1.9-.6.7-1.1 1.1-1.2 1.9zm-20.6-5.2c0-.2-.1-.5-.4-.4-.2 0-.5.1-.5.3 0 .4.4.4.6.5.3 0 .3-.2.3-.4zm-2.3 2.2c.5-.3 1-.3 1.3-.7-.9-.3-.9-.3-1.3.7zm20.9 1.5c0-.2-.1-.4-.3-.3-.3 0-.3.3-.3.6 0 .2 0 .4.2.3.4-.1.4-.4.4-.6zm-21.2.4c-.4.4-.4.4-.4.8.2-.1.3-.3.4-.8z" data-color="1" class="icon1"></path><path d="M66.2 135.4c-.8.2-1.6.4-2.4.5-2.6.4-5.3.4-7.9.2-.9-.1-1.9-.1-2.8.1-1.1.2-2.3.2-3.4 0-1.3-.2-2.7 0-4 .1-.6.1-1.3.3-2-.1.4-.5 1-.5 1.4-.6 1.8-.1 3.6-.4 5.4-.1.8.1 1.6.1 2.4-.1 1.7-.4 3.4-.1 5.2 0 2 .1 4-.1 6.1-.3.7-.1 1.4-.3 2.1-.2-.1.3-.1.4-.1.5z" data-color="1" class="icon1"></path><path d="M75.9 133.9c-.4.5-.8.3-1.1.3-3.3.2-6.6-.1-9.9-.2-.8 0-1.6-.2-2.4-.5-.2-.1-.5-.1-.4-.5.1-.3.4-.3.6-.2.8.2 1.6.4 2.5.5 3.2.4 6.4.4 9.6.5.4.1.7.1 1.1.1z" data-color="1" class="icon1"></path><path d="M116.9 110.8c-.7.5-1.3.4-1.9.3-1.6-.4-3.3-.3-4.9-.1-1.4.1-2.7 0-4 .2h-.4c-.2 0-.3-.2-.3-.3 0-.2.2-.2.4-.2 2.4.1 4.7-.1 7.1.1 1.2-.2 2.6-.1 4 0z" data-color="1" class="icon1"></path><path d="M120.7 108.7c-.1.2-.3.2-.5.1-3-.7-6-.1-9-.5 1.4-.6 8.2-.3 9.5.4z" data-color="1" class="icon1"></path><path d="M76.4 130.7c-.2.4-.4.5-.7.5-1.2-.2-2.4.1-3.5.1h-.6c-.2 0-.3-.2-.3-.3 0-.2.2-.3.3-.3 1.6 0 3.2-.2 4.8 0z" data-color="1" class="icon1"></path><path d="M83.7 123.5c-.1.4-.4.3-.6.3-1.2-.1-2.3-.2-3.5-.3-.2 0-.6 0-.6-.3 0-.4.4-.4.7-.4.5 0 .9.1 1.4.2.8.1 1.7.3 2.6.5z" data-color="1" class="icon1"></path><path d="M125.8 112.1c1.6-.2 3.2-.5 4.8-.4-1.6.8-3.5 1-4.8.4z" data-color="1" class="icon1"></path><path d="M130.1 127.4c-.8.6-1.4.3-2.1.2-.1 0-.2-.2-.2-.3 0-.1.1-.2.2-.2.7 0 1.4 0 2.1.3z" data-color="1" class="icon1"></path><path d="M106.9 141.7c.6-.5 1.1-.7 1.7-.5-.6.7-.6.7-1.7.5z" data-color="1" class="icon1"></path><path d="M128 116.4c-.4.4-.8.2-1.5.2.7-.4 1.1-.3 1.5-.2z" data-color="1" class="icon1"></path><path d="M96.3 89.9c-.1.6-.1 1.1-.4 1.6-.2.3-.4.4-.7.3-.3-.1-.3-.4-.3-.6.1-.6.2-1.2.6-1.6.2-.2.3-.5.6-.3.4.1.2.4.2.6z" data-color="1" class="icon1"></path><path d="M80.9 102.7c0 .2-.1.5-.1.7-.1.3-.3.5-.6.5-.4 0-.4-.3-.4-.7 0-.4.2-.7.4-1 .1-.2.3-.3.5-.2.3.2.2.4.2.7z" data-color="1" class="icon1"></path><path d="M75.6 98c.1-.4 0-.9.5-1.1.3-.1.6.5.6 1.1 0 .5-.2.8-.6.8-.5-.1-.5-.5-.5-.8z" data-color="1" class="icon1"></path><path d="M106.7 86.9c.4 0 .5.2.6.5 0 .4-.1.9-.5 1-.3.1-.5-.1-.6-.5-.1-.4.2-1 .5-1z" data-color="1" class="icon1"></path><path d="M88.7 96c0-.3.1-.8.5-.7.4 0 .5.5.5.9s-.2.7-.6.6c-.5 0-.5-.4-.4-.8z" data-color="1" class="icon1"></path><path d="M82.7 93.1c.4 0 .7.1.6.5 0 .4-.1.8-.6.8s-.6-.3-.6-.7c.1-.4.4-.6.6-.6z" data-color="1" class="icon1"></path><path d="M131.5 95.7c-.1.4-.1.8-.6.8-.3 0-.5-.3-.5-.6 0-.4.3-.7.7-.7.3 0 .4.2.4.5z" data-color="1" class="icon1"></path><path d="M131.1 88c0 .4-.3.6-.6.7-.4.1-.5-.3-.5-.6s.1-.6.5-.6c.3.1.5.2.6.5z" data-color="1" class="icon1"></path><path d="M134.8 97.4c.4 0 .4.4.4.7 0 .3 0 .7-.4.7-.5 0-.4-.4-.5-.7-.1-.5.2-.7.5-.7z" data-color="1" class="icon1"></path><path d="M120.7 90.1c0 .3-.1.6-.5.6-.3 0-.5-.3-.5-.7 0-.3.2-.6.5-.6.4.1.4.4.5.7z" data-color="1" class="icon1"></path><path d="M124.5 84.8c0 .3 0 .5-.2.7-.1.1-.2.2-.3.1-.3-.3-.2-.7-.2-1.1 0-.2.1-.5.4-.5.4 0 .3.4.3.8z" data-color="1" class="icon1"></path><path d="M116.4 91.1c.4 0 .5.2.6.5 0 .3 0 .6-.4.6-.3 0-.5-.3-.5-.6-.1-.2 0-.5.3-.5z" data-color="1" class="icon1"></path><path d="M141.6 102c-.3 0-.4-.2-.5-.5-.1-.3.1-.5.4-.6.3-.1.6.2.5.5 0 .3-.1.5-.4.6z" data-color="1" class="icon1"></path><path d="M102.1 92.7c0 .3-.3.5-.6.6-.3 0-.4-.2-.4-.5s.2-.4.5-.5c.2 0 .5.1.5.4z" data-color="1" class="icon1"></path><path d="M90 85.4c.4 0 .6.3.6.6s-.2.4-.5.5c-.4 0-.5-.2-.5-.5 0-.4.2-.6.4-.6z" data-color="1" class="icon1"></path><path d="M140.7 111.5c-.3 0-.5-.2-.5-.5s.2-.5.5-.5.5.1.5.4c.1.4-.1.6-.5.6z" data-color="1" class="icon1"></path><path d="M113.9 82.1c0 .3-.2.5-.5.5s-.4-.2-.4-.5.2-.5.5-.5.4.3.4.5z" data-color="1" class="icon1"></path><path d="M135.8 88.7c-.4 0-.7-.1-.7-.4 0-.3.1-.6.5-.6.3 0 .4.2.5.5 0 .3-.2.5-.3.5z" data-color="1" class="icon1"></path><path d="M102.1 83c-.3 0-.5-.1-.5-.4 0-.3.2-.4.5-.4.2 0 .4.1.4.4 0 .1-.2.4-.4.4z" data-color="1" class="icon1"></path><path d="M125.5 93.8c0 .5-.2.6-.5.6-.2 0-.4-.1-.4-.3 0-.3.2-.5.5-.5.2-.1.4.1.4.2z" data-color="1" class="icon1"></path><path d="M27.5 70.5c.1 1.3 0 2.3 0 3.4-.1 3.5.1 7 .3 10.5.2 3.5.2 7 .3 10.5 0 1.9.1 3.7.6 5.6.1.4.1.9.1 1.3-.4 2.5.1 5 .2 7.5.1 1.6 0 3.2.2 4.7 0 .5 0 .9.2 1.4.1.2.1.4-.2.5-.3.1-.4-.2-.5-.4-.1-.5-.1-1-.2-1.5-.1-2.7-.2-5.4-.5-8-.1-1.3.3-2.7.1-4.1v-.6c-1-4.7-.7-9.4-.8-14.1 0-1.4-.1-2.9-.2-4.3-.1-2.8-.3-5.6-.2-8.4 0-1.4 0-2.7.6-4z" data-color="1" class="icon1"></path><path d="M30.6 93.2c.5.3.4.7.4 1.1v7.6c0 2.2.1 4.4 0 6.5-.1 2.6.1 5.3-.2 7.9-.2 2 .1 3.9.3 5.9.1 1.4.2 2.8.2 4.2 0 .8-.1 1.6.1 2.4.1.2 0 .5-.1.7-.1.1-.3.2-.4.2-.1 0-.2-.2-.3-.3 0-.3-.1-.6-.1-.9 0-1.9.2-3.8 0-5.8-.5-4-.2-7.9-.2-11.9 0-3.7-.1-7.5.2-11.3.1-1.8-.1-3.7-.1-5.5 0-.2-.1-.5.2-.8z" data-color="1" class="icon1"></path><path d="M37.7 126.6c-.3-.7-.2-1.5-.2-2.2.3-3.1.3-6.3.2-9.4 0-2.1 0-4.3.1-6.4.1-2.1-.1-4.3-.1-6.4 0-1.1 0-2.1-.1-3.2 0-.2 0-.5.2-.5.3 0 .4.3.4.5v1.8c0 4.1.1 8.3 0 12.4 0 1.9.2 3.9.1 5.9-.1 2.3-.2 4.7-.3 7 .1.2.1.4-.3.5z" data-color="1" class="icon1"></path><path d="M32.5 63.6c.2.2.2.3.2.4-.1 3.5.4 7 .3 10.5-.1 1.7-.3 3.4-.5 5.1 0 .4-.1.7-.6.6-.4-.1-.3-.4-.3-.7.3-1.9.4-3.8.5-5.7.1-2.6-.2-5.1-.2-7.6.1-1-.1-1.8.6-2.6z" data-color="1" class="icon1"></path><path d="M35 92.9c-.5 1.8-.3 3.6-.3 5.3-.1 2.7-.1 5.5-.2 8.2-.1 1.6.1 3.1.1 4.7 0 .3.1.5-.1.7-.1.2-.3.3-.5.2-.2-.1-.2-.2-.1-.4.4-2.5 0-5.1.2-7.7.1-1.8.2-3.7.1-5.5 0-1.3-.1-2.6 0-3.9 0-.6.1-1.2.8-1.6z" data-color="1" class="icon1"></path><path d="M35 125c0-2.7-.2-5.5-.3-8.2 0-.3-.3-.9.3-1 .6 0 .5.6.5 1 .2 3.1.3 6.1.3 9.2 0 1 .1 2 .1 2.9v.8c0 .2-.2.3-.4.3s-.2-.1-.3-.2c-.2-.3-.1-.6-.1-.9-.1-1.3-.1-2.6-.1-3.9z" data-color="1" class="icon1"></path><path d="M24.6 82.2c-.9-2.8-1-5.6-.8-8.5.3 2.8.4 5.6.8 8.5z" data-color="1" class="icon1"></path><path d="M50.2 105.9c-.1 2.7.1 5.5-.1 8.2v.5c-.1.8-.4 1.1-1.3 1.1-1.1-.1-2.2-.2-3.3-.4-.9-.2-1.2-.6-1.2-1.6 0-2.4.2-4.8.4-7.1.1-1 .2-2 .2-3.1 0-.9.1-1.1 1-1.1.7 0 1.2-.2 1.9-.4.3-.1.6-.2 1-.2.9 0 1 .1 1.2.9.2 1.1.2 2.1.2 3.2zm-1.1 6.2c.1-.5.1-1 .1-1.5 0-.9-.1-1-.9-.8-.4.1-.6.3-.7.8-.1 1.3.6 2.5.6 3.7 0 .2.2.3.4.3.3 0 .5-.2.5-.5v-2zm-2.4-.1v-1.5c0-.2-.1-.4-.4-.4-.5-.1-1 .3-1 .8 0 .8 0 1.6.1 2.4.1.7.4 1 1.1.9.3 0 .5-.1.4-.4-.2-.6-.2-1.2-.2-1.8zm2.6-4.5c-.1-.3.1-.8-.3-1-.4-.1-.8 0-1.1.2-.4.3-.2.8-.3 1.2 0 .3-.1.6.3.8.4.1.8.1 1.2-.2.3-.3.1-.6.2-1zm0-2.7c0-.6-.1-1.2-.4-1.7-.1-.2-.2-.3-.4-.2-.2 0-.3.2-.3.3-.1.5-.2 1.1-.3 1.6-.1.4 0 .7.5.6.3 0 .9.2.9-.6zm-2.7 3.2v-.4c0-.3.1-.6-.4-.7-.4 0-.8.1-.8.6 0 .2-.1.4-.1.6 0 .6.4.9 1 .7.5-.1.4-.5.3-.8zm.3-3.5c0-.4.1-.9-.4-.9-.4 0-.6.4-.7.8v.9c0 .3.1.5.4.5.3 0 .5-.1.5-.4.1-.4.1-.7.2-.9z" data-color="1" class="icon1"></path><path d="M56.4 108.5c-.2 1-.2 2.3-.8 3.3-.5.9-.6 1.7 0 2.6 1 1.4.8 2.9.3 4.4-.5 1.6-1.9 2.3-3.5 1.7-.6-.2-1.2-.2-1.8 0-1.1.5-2.2 1-3.2 1.5-.7.4-1.5.7-2.3.6-1-.1-1.4-.6-1.2-1.5.3-1.2.9-2.3 1.9-3.1.4-.3.8-.3 1.3-.3 1.2.2 1.4.1 1.9-1.2.1-.3.3-.5.6-.6.6 0 1-.4 1.5-.7.8-.4 1-1 .8-1.9-.1-.2-.1-.4 0-.6.8-1.4 1-3.1 1.6-4.6.1-.3.2-.5.4-.8.5-.5 1.1-.8 1.8-.7.6.3.8.8.7 1.9zm-.9-1c-.8.3-1.2.7-1.4 1.4-.2.7-.4 1.4-.7 2.1-.2.5-.4 1-.2 1.5.3.9.3 1.6-.4 2.4-.3.3-.4.8-.9 1-.8.4-1.8.6-1.9 1.7 0 .1-.2.2-.3.2-.9.5-1.6 1.1-2.7.9-.6-.2-1.1.2-1.4.6-.4.5-.6 1-.8 1.6-.2.6.1.9.7.8.2 0 .5-.2.7-.2 1.2-.3 2.3-1.1 3.4-1.6s2.2-.6 3.3-.3c1.2.3 1.8-.1 2.2-1.2.5-1.3.3-2.5-.6-3.6-.8-1-.6-2-.1-3 1-1.3 1.2-2.7 1.1-4.3z" data-color="1" class="icon1"></path><path d="M59.4 109.6c.1-2.4.2-4.8.3-7.3.1-1.2.1-1.2 1.4-1.2.8 0 1.5-.2 2.3-.2 1.4-.1 1.7.2 1.9 1.5.2 1.3.2 2.7.2 4 0 1.5.1 3 .1 4.5 0 1-.3 1.4-1.2 1.7-1.3.4-2.5.6-3.9.5-1-.1-1.1-.2-1.1-1.2-.1-.8 0-1.5 0-2.3zm5-4.5c-.7.3-1.5.1-1.6 1-.1 1.5-.2 3.1-.2 4.6 0 .9.3 1.1 1.2.7.5-.2.7-.6.7-1.1-.1-1.6-.1-3.3-.1-5.2zm-4 3.6h-.1v2.5c0 .4.2.6.6.6.4 0 .8 0 .8-.6.1-1.6.1-3.3.2-4.9 0-.5-.2-.8-.7-.8-.5 0-.8.2-.8.8v2.4zm.3-4.2c.8 0 1.5-.1 2.3-.1.2 0 .3-.1.5-.1.5-.1.8-.3.7-.8-.1-.6.1-1.3-.7-1.5-.9-.1-1.9-.2-2.7.3-.6.5-.3 1.3-.3 2l.2.2z" data-color="1" class="icon1"></path><path d="M156.7 108.1c-1.9-1.2-3.6-2.2-4.4-4.3-.3-.8-.7-1.5-.6-2.4.4 0 .5.3.6.6.2.7.5 1.4.9 2 .1.2.2.6.6.5.3-.1.2-.4.2-.7 0-.7 0-1.4-.1-2-.1-.9-.1-1.8 0-2.7 0-.2 0-.5.3-.4.2 0 .3.2.4.4v.5c.1 1.4.2 2.7.3 4.1 0 .3.2.7 0 1-.4 1.1.3 1.5 1 2 .7.4 1.4.9 2.3 1.1.3.1.5.2.5.5 0 .5-.3.4-.6.4-.7.1-1.3.4-1.9.8-1.7 1-3.4.9-5.2.4-.3-.1-.6-.2-.5-.6.1-.4.4-.3.7-.3l1.5.3c1.6.2 2.8-.1 4-1.2z" data-color="1" class="icon1"></path><path d="M166.5 103.7c.4-1.2 0-2.2.1-3.2v-3.7c0-.2 0-.5.3-.5.3-.1.5.1.6.4 0 .2.1.3.1.5-.3 1.5 0 3.1.1 4.6.2 1.9-.4 3.6-1.4 5.2-.6 1-1.3 2-1.8 3.1-.1.2-.2.5-.5.6-.2.1-.4 0-.6-.1-.2-.2-.2-.4-.1-.6.5-.9 1-1.7 1.6-2.6.5-.8 1.1-1.6 1.4-2.7-1.2-.2-1.6-1.1-1.9-2.1-.2-.5-.3-1-.5-1.4-.1-.2 0-.4.2-.5.2-.1.3.1.4.2.4.3.3.8.5 1.2.2.5.6 1.3 1.5 1.6z" data-color="1" class="icon1"></path><path d="M161.7 95.8c0 1.1-.5 2-.7 3-.2.8-.4 1.6 0 2.4.1.2.1.4-.1.5-.2.1-.4 0-.5-.2-.4-.6-.5-1.2-.4-1.9.1-1 .4-1.9.7-2.8.3-1.1.1-2-.3-3-.3-.7-.5-1.3-.3-2.1 0-.1.2-.2.3-.2.1 0 .3.1.3.2.1 1.3 1.2 2.5 1 4.1z" data-color="1" class="icon1"></path><path d="M158 92.9c.1 0 .3.1.4.2.4.6 1.1.9 1.7 1.3.2.1.3.3.2.5-.1.2-.3.2-.4.2-.9-.3-1.6-.8-2.1-1.7-.2-.3-.2-.5.2-.5z" data-color="1" class="icon1"></path><path d="M155.6 83.4v.8c0 .4-.1.8-.5.7-.4 0-.5-.5-.5-.8.1-1 .2-1.9.2-2.9 0-1.3.1-2.5 0-3.8 0-.2 0-.4.2-.5.3-.1.5.1.6.3.1.2.2.4.2.6 0 1.5.3 2.9.6 4.4.1.3.1.6.1.9.1.7 0 .8-.9.3z" data-color="1" class="icon1"></path><path d="M161.7 83.3c.9-.9 1.7-1.7 2.5-2.6.5-.5 1-.9 1.1-1.7.1-.4.4-.7.8-.5.3.2.3.6.1.9-.7 1.1-1.6 2-2.5 2.8-.3.3-.7.6-1.1.9-.1.3-.4.4-.9.2z" data-color="1" class="icon1"></path><path d="M58.4 84.4c0-1.9.2-4.1.3-6.2 0-2.3.3-2.6 2.6-2.7.9-.1 1.8 0 2.7 0 1.4.1 1.7.4 1.7 1.8-.1 2.3-.1 4.5-.3 6.8-.1 1-.2 1.9-.5 2.9-.1.5-.4.8-.9.9-1.3.2-2.6.5-3.9.7-1.3.3-1.7-.1-1.7-1.4v-2c-.1-.3-.1-.4 0-.8zm4-6.5V79c0 .3.1.5.4.5 1.4 0 2.1-1.1 1.8-2.4-.1-.3-.3-.6-.7-.7-1.2-.3-1.6-.1-1.6 1.2.1.1.1.2.1.3zm-.9-1.5c-1.4-.1-1.6.1-1.8 1.2-.1.6-.1 1.3-.2 1.9 0 .2 0 .4.2.5.5.2 1-.1 1.5-.2.4-.1.3-.5.3-.7-.1-.9-.2-1.7 0-2.7zm-2.3 9.5c0 1.2.1 1.4.9 1.4 1.3 0 1.7-.3 1.7-1.3 0-1.1-.2-1.5-.7-1.5-1.4-.1-1.9.3-1.9 1.4zm5.3-4.8c.1-.9.1-1-.8-.8-.3.1-.6.2-.8.2-.4.1-.6.4-.5.8.1.5-.2 1 .2 1.4.1.1.3.1.5 0 1.2-.1 1.4-.3 1.4-1.6zm-5.2 1.3c-.1 1.1 0 1.1 1 1 .3 0 .6-.1.9-.2.1 0 .3-.2.4-.3.1-.6.1-1.3-.2-1.7-.3-.5-.9-.1-1.4 0-.8.1-.6.7-.7 1.2zm3.4 2.6c0 .3 0 .7.2 1.1.1.2.2.5.5.5s.4-.3.5-.5c.2-.4.3-.9.3-1.4 0-.3.3-.7 0-1-.4-.3-.8 0-1.2.1-.5.3-.3.7-.3 1.2z" data-color="1" class="icon1"></path><path d="M86.8 70.1c-.9 0-1.8.2-2.6.1s-1 .2-1 .9v3.7h-.1c0 .8 0 1.5-.1 2.3v1.1c0 .5.1 1 .7.9 1.2-.2 2.4 0 3.6-.5.5-.2.6-.5.6-1.1 0-2 .1-4.1.2-6.1 0-1-.3-1.3-1.3-1.3zm-1.9 7.4c-.1.2-.2.4-.4.4s-.4-.2-.4-.4c0-.4-.1-.8-.1-1.2 0-.5 0-.8.1-1.2 0-.3.2-.4.5-.4s.5.1.5.4c0 .7 0 1.5-.2 2.4zm2.1-2.7c0 .6-.1 1.2-.1 1.8 0 .2-.1.4-.3.5-.2.1-.3.3-.5.2-.2-.1-.2-.3-.2-.4 0-.3 0-.6.1-.9.1-.5.1-.9.2-1.4.1-.3.3-.4.6-.4.2.1.2.4.2.6zm-.6-1.8c-.5.1-.9.2-1.4.3-.1 0-.3 0-.4.1-.4 0-.6-.1-.6-.5-.2-1 .1-1.5 1.1-1.6.3-.1.7-.2 1-.2.6 0 .9.3 1 1 .1.6-.2.8-.7.9z" data-color="1" class="icon1"></path><path d="M105.9 68.6c0-1.1-.4-1.4-1.5-1.3-.7.1-1.3.1-2 .2-1.3.1-1.8.7-1.7 2 .1 1.6.3 3.2 0 4.9.1.3.2.6.4.8 1.5 0 2.9-.1 4.4-.3.1-.2.1-.4.2-.7.2-1.1.1-2.2.2-3.3v-2.3zm-4.1.5c0-.2.2-.4.4-.4.3 0 .4.2.5.5v1.4c0 .2-.2.4-.4.4s-.4-.1-.4-.4c-.2-.5-.2-1-.1-1.5zm.9 4c0 .4.1 1-.5 1s-.3-.7-.4-1c.1-.4-.2-1 .5-1 .6 0 .4.6.4 1zm2 .4c-.1.4-.4.5-.7.6-.3.1-.6 0-.5-.4 0-.3 0-.5.1-.8.2-1.1 0-1.1 1.3-1.2.1.7-.1 1.2-.2 1.8zm-.7-3c-.3 0-.5-.3-.4-1.1.1-.4 0-1 .7-1 .5 0 .7.4.7 1.1 0 .7-.5 1.1-1 1z" data-color="1" class="icon1"></path><path d="M121.2 71.6c0 .9 0 1.7-.2 2.5-.1.3-.1.6-.5.6s-.6-.3-.6-.5c.2-1.5-.2-3 .3-4.4.1-.3.3-.5.6-.4.3 0 .4.3.4.5v1.7z" data-color="1" class="icon1"></path><path d="M118.7 71.4c0 .9 0 1.7-.3 2.5-.1.3-.2.6-.6.5-.4 0-.5-.3-.5-.6-.1-1.3 0-2.5.3-3.8 0-.3.2-.6.6-.6.4 0 .6.4.6.7-.1.4-.1.9-.1 1.3z" data-color="1" class="icon1"></path><path d="M114.4 71.5c.1-.7-.1-1.4.2-2.1.1-.3.2-.7.7-.6.4.1.5.5.5.8-.2 1.1-.1 2.2-.1 3.3 0 .2-.1.4-.1.6 0 .3-.1.5-.4.5-.3 0-.4-.2-.5-.5-.4-.6-.3-1.3-.3-2z" data-color="1" class="icon1"></path><path d="M122.1 73.2c.1-.9.1-1.6.2-2.3 0-.4.3-.7.8-.7.4 0 .6.4.4.8-.3 1-.1 2.1-.2 3.2v.5c0 .2-.1.4-.4.4-.3 0-.5-.2-.5-.4-.3-.6-.1-1.1-.3-1.5z" data-color="1" class="icon1"></path><path d="M95.9 111.3c-.5 0-.7-.1-.7-.3 0-.2.1-.4.3-.5.5-.1.9-.4 1.4-.6.4-.2.6-.4.4-1-.2-.7.1-.9.8-.7.1 0 .2.1.3.2.3.2.7-.1.9.3.2.5-.4.5-.6.7-.1.1-.1.3-.1.5s0 .4-.1.4c-1.2.1-1.8 1.3-2.6 1z" data-color="1" class="icon1"></path><path d="M102.1 107.9c.2 0 .5.1.5.4 0 .3-.6 1.4-.8 1.3-.4-.1-.6-.3-.6-.7 0-.5.4-1 .9-1z" data-color="1" class="icon1"></path><path d="M105 105.7c.4 0 .8 0 .9.5 0 .5-.4.6-.8.5-.4 0-.8-.1-.9-.5 0-.6.5-.5.8-.5z" data-color="1" class="icon1"></path><path d="M110.4 105.2c0 .3-.2.4-.5.4-.5 0-.7-.3-.8-.8-.1-.3.1-.4.3-.4.4 0 1 .4 1 .8z" data-color="1" class="icon1"></path><path d="M109.4 106.2c-.4.7-1 .5-1.4.5-.3 0-.4-.2-.4-.5s.3-.4.6-.4l1.2.4z" data-color="1" class="icon1"></path><path d="M116.5 103.1c-.3 0-.6 0-.6-.4 0-.3.2-.5.5-.4.3 0 .7.1.7.6 0 .3-.4.2-.6.2z" data-color="1" class="icon1"></path><path d="M113 104.2c.2.1.3.2.3.5-.1.3-.2.6-.5.6-.2 0-.4-.2-.4-.4.1-.4.2-.7.6-.7z" data-color="1" class="icon1"></path><path d="M179.9 108.9c-.3-.4-.7 0-.9.3-1.9 1.7-3.8 3.3-5.6 5.1-3.7 3.8-7.4 7.5-10.9 11.4-.7.8-1.5 1.5-2.6 2.1-.2-1.4 0-2.7.2-3.9.1-.6-.1-1.5 1-1.4.2 0 .3-.3.4-.5.1-.3.3-.6.4-1 .6-2.2 2.2-3.5 4.2-4.3.5-.2 1.1-.4 1.5-.7 2.1-1.6 3.9-3.5 5.2-5.9.5-.9.7-1.8 0-2.8-.1-.2-.2-.4-.2-.6-.5-1.2-.4-1.5 1-1.6-.2.2-.4.4-.5.6-.2.3-.5.6 0 1 .4.3.9.2 1.1-.4.1-.5.4-.8.7-1.2.9-1.2 1.8-2.4 2.8-3.5.4-.4.5-1 .6-1.5.1-.3 0-.5-.3-.6-.3-.1-.5-.1-.7.1-.2.2-.3.4-.5.6-.8.8-1.1 1-2 1.4 1.3-1.6 1.3-3.2.7-4.9-.2-.6 0-1.2.2-1.7.4-.8.9-1.7 1.3-2.5s.4-1.6-.3-2.3c-.8-.9-1.6-1.6-2.7-2.1-.9-.5-1.8-.9-2.6-1.6-1-1-1.6-2.1-.8-3.8.4-.8.7-1.5.9-2.4.3-1.7.2-3.2-1.1-4.5-.4-.4-.8-.9-1.2-1.3-1.3-1.5-2.8-2.7-4.6-3.5-1-.4-2-.9-3-1.4-2.4-1.2-4.2-3-4.5-5.9-.1-1.4-1-2.4-2.1-3.3-2.1-1.6-4.4-2.1-6.9-1.9-1 .1-2 .3-2.9.8-.7.4-.8 1.3-1.3 1.9v1.1c0 .1-.1.1-.2.1 0 .3-.2.4-.7.7-.5.3-1 .4-1.2 1-.7 2.1-1.5 4.3-1 6.6.1.3.3.7-.1 1.1-.8-.2-1.4-.8-2-1.2-.7-.5-1.4-1.1-2.1-1.6-.8-.6-1-.5-1.8.1l-2.4 2.1c-.9.9-1.8 1.8-3 2.3-.6.3-.7.7-.3 1.1.3.3.2.6.3.9.3 1.2.1 2.5.1 3.7 0 .6-.3.6-.7.5-.8-.3-1.5-.5-2.3-.8-.2-.1-.5-.2-.4-.4.3-.5 0-.9-.1-1.4-.1-2.9-.1-5.8 0-8.7 0-.9.1-1.8.5-2.6.2-.4.2-.8-.2-1.3-1.5-1.6-2.8-3.4-3.8-5.4l-1.5-2.7c-.4-.7-.8-1.3-1.8-1-.4.1-.7-.1-.6-.7.1-1.1.1-2.1.2-3.2 0-.5-.2-.8-.7-.8h-1.9c-.6 0-.8.3-.7.8.2 1.1-.3 2.3.3 3.4-.2 0-.3.1-.5 0-1.5 0-2.8-.6-4.2-.8-1.4-.2-2.8-.7-4.1-1.2-.7-.3-1.3-.6-1.3-1.5 0-.7-.5-.9-1.2-.8-.5.1-1.1.2-1.6.3-1.2.1-1.6.8-.9 1.9.5 1 .2 1.8-.9 2.1-.4.1-.8.1-1.1.2-.9.2-1.1.4-.8 1.3.2.7.2 1.4.4 2-1.1.3-2 .4-2.8-.3-.3-.2-.7-.3-1-.4-.9-.4-1.9-.7-2.8-1.3-1.2-.7-2.3-1.5-3.7-1.9-1-.3-1-.3-1-1.4 0-1-.4-1.3-1.3-1.1-.7.1-1.3.3-2 .6s-.9.5-.8 1.3c0 .6.2 1.1.2 1.6.1 1.2.1 1.3-1.1 1.4h-.4c-1.2 0-1.3.2-1.2 1.4 0 .1.1.3.1.4.2 2.4.2 2.4-2.1 2.9h-.1c-.6.2-.9.5-.7 1.1.1.4.1.8.2 1.3.2 1.6.2 1.6-1.4 1.7-.8.1-1 .2-.8 1 .2 1.6.3 3.1.4 4.7 0 3.3.1 6.6.1 9.9 0 1.8.2 3.6.1 5.5-.1 1.1-.4 1.7-1.3 2.2-.6.3-.9 1-1.7 1.3-.1-.6.1-1 .3-1.5.2-.5.4-.9.7-1.4.4-.6.2-1.1-.2-1.6-.3-.3-.6-.6-1-.8-.7-.5-1.5-.8-2.4-.9.2-.6.4-1.1.4-1.7 0-1.7.4-3.3.8-4.9.3-1.1 0-2.3-.7-3-.7-.7-.6-1.3-.5-2.1.1-.5.1-1 .3-1.5.4-.9.1-1.6-.5-2.3-.7-.9-1.4-1.8-1.4-3 0-.6.1-1.2.2-1.8.1-.5.1-1-.5-1.3-.7-.3-1.2-.9-1.9-1.3-2.4-1.8-4.7-3.6-6.1-6.4-.2-.4-.6-.6-1.1-.5-2.7.6-5.5.7-8.2.8-3.3.1-6.6-.2-9.9-.5-2.7-.2-5.4-.5-8-1.1-.7-.2-1.4-.4-2.1-.4-.2 0-.4-.1-.5-.2-.7-.7-1-.6-1.2.4-.8 2.8-2.1 5.3-3.5 7.8-1.6 2.9-3.6 5.4-6.6 7-.6.3-.7.9-.2 1.4.5.4.5 1 .5 1.5.1.6 0 1.1.1 1.7.4 4 .7 8 1.2 12 .4 2.9.5 5.9.9 8.8.6 4.3.9 8.6 1.3 12.9.4 4.5 1 9.1 1.4 13.6.2 2.6.6 5.2.7 7.9.1 2-1.2 4.1 1.4 4.5 3.5 0 6.3.1 9.7-.8.9-.2 1.7.1 2.6-.3 1.1-.4 2.1-1.2 3.3-1.6 3.2-1.2 6.5-1.9 9.7-3.1 4.5-1.6 9.1-2.8 13.5-4.4 3.2-1.1 6.6-1.2 9.7-2.8.1-.1.3 0 .4-.1l4.5-1.2c2.1-.6 4.1-1.5 6.1-2.1 1.2-.4 2.4-.5 3.5-1 1.1-.6 1.8-1.7 3-2 .6-.2 1.2-.3 1.8-.5 3-1 6.1-1.8 9-3 2.8-1.1 5.6-2.2 8.4-3.4 3-1.2 6.1-2.1 9-3.3 1.2-.5 2.3-1 3.5-1.5.7-.3 1.4-.2 2 .3 1.6 1.4 3.2 2.7 4.5 4.5 2.3 3.3 4.5 6.5 6.1 10.1.8 1.7 1.5 3.4 1.8 5.2.2 1 1 3.2.7 4.2-.4 1.1-2.3 2.3-3.3 3-4.6 3.1-9.4 5.8-14.1 8.7-4.3 2.6-8.6 5.7-13.4 7.4-1.9.7-3.5 1.8-5.2 2.9-.3.2-.7.5-.4.8.3.4.6 0 .9-.1 2.2-1.3 4.4-2.8 6.9-3.4.4-.1.8-.3 1.1-.5 2.1-1.6 4.6-2.4 6.8-3.9 4.7-3.1 9.7-5.7 14.4-8.7 4.6-3 8.9-6.7 13.7-9.3 2.9-1.6 6.1-2.7 8.6-5.1.2.4.3.8.2 1.2.4 1.7-.5 3.3-1.5 4.7-.7.9-1.5 1.7-2.2 2.5-.8.9-1.4 1.7-2.3 2.5-1.6 1.5-3.4 2.8-5.1 4.2l-.5.5c-3.4 3.6-6.5 7.4-9.7 11.2-.3.3-.5.6-.2 1 .4.4.8.2 1.1-.1.1-.1.2-.3.3-.4 1-1.1 1.9-2.2 2.9-3.2 1.5-1.5 3.2-2.9 4.6-4.5 1.9-2.1 4-4.1 5.8-6.3 2.2-2.7 4.7-5.1 6.9-7.7.2-.2.3-.5.8-.3-.3 1.9-.8 3.7-.9 5.7 0 .8 0 1.8-1.2 1.9-.1 0-.2.2-.3.3-.6.7-1.2 1.3-1.8 2-2.2 2.7-4.4 5.4-7 7.8-1.1 1.1-2.3 2-3.3 3.2-.2.3-.5.4-.8.6-.4.2-.8.5-.8 1 0 .1.1.2.2.3.5.2.9-.2 1.2-.5 1.4-1.3 2.6-2.9 4.2-4 .6-.4 1.1-1 1.6-1.6 1.7-2 3.6-3.9 5.3-6 .5-.7 1.1-1.5 2-1.9.1.2.1.3.1.4 0 .4-.2.8-.3 1.2-.1.4.2.9.5 1 1 .2 2-.5 2.3-1.5.2-.8.3-1.6.3-2.4 0-.4 0-.7.4-1 1.6-1.4 3.2-2.7 4.6-4.4 1.3-1.5 2.7-2.8 4.1-4.2 2.3-2.4 4.4-4.8 6.9-7 1.3-1.2 2.7-2.4 4-3.6.4-.3.8-.7.5-1.1zm-6.4-3.7c-.2-.6.1-.9.6-1.2 0 .7-.4.9-.6 1.2zm1.2-6s-.2.1-.2 0c-.3-.3-.2-.7 0-1.1.3.4.5.7.2 1.1zm.9-8.4c.7.4.8.9.4 1.5-.2.4-.5.8-.7 1.2-.5 1-1.2 1.9-1 3.1 0 .2-.1.4-.3.3-.2 0-.3-.2-.3-.4 0-.5.1-1 .3-1.5.3-1 1-1.8.9-3 0-.3.5-.8.7-1.2zm-1.5-1.4c.2.1.3.3.1.5-.5.7-.9 1.5-1.8 2.2.2-1.1.8-1.9 1.1-2.7.1-.2.4-.2.6 0zm-3.4-2.1c.6.7 1.4 1 2.2 1.5-.1.6-.6.9-.9 1.4-.2.4-.6.8-.9 1.2-.1-.8.3-1.3.7-1.8.3-.5.5-.9-.3-1h-.1c-.4 0-.4-1-1-.5-.3.3-.5.7-.7 1.1-.1.1-.1.3-.3.4 0-.5.5-1.9.8-2.2.1-.3.3-.3.5-.1zm-1.5-1.3c-.1-.1-.1-.2 0-.3.2-.2.3-.1.4.1.1.2.2.4.1.6-.3-.1-.3-.3-.5-.4zm-27.7-17.4c.1-1 .4-2 .7-3 .3-1 .6-1.1 1.6-1.2.7-.1.9-.3.8-1-.3-1.5.2-2.6 1.5-3.3.4-.2.9-.5 1.4-.5h1.5c2-.3 3.8.3 5.4 1.4.9.6 1.5 1.4 1.8 2.4.1.4.2.7.3 1.1.4 2.8 2.4 4.3 4.6 5.6.9.5 1.8.9 2.8 1.3 1.9.8 3.4 2 4.7 3.6.3.4.6.7.9 1.1 1.4 1.3 1.5 2.9 1 4.6-.2.9-.6 1.7-1 2.5-.8 1.6-1.8 3.2-2.4 4.9-.4 1.1-.4 1.1.4 1.8.2.2.5.4.3.7-.2.3-.4.1-.7 0-.8-.3-1.5-.7-2.1-1.4-.4-.5-1-.9-1.7-1.2-2.4-1-4.8-1.6-7.4-1.1-.8.1-1.6.2-2.3.5-1.2.4-2.5.4-3.7 0-.4-.1-.8-.3-.5-.8.2-.4-.1-.6-.4-.8-1.2-.8-2.1-2-3-3.1-.4-.5-.4-1-.3-1.6.1-1.1.2-2.2.2-3.3 0-1.1-.3-2-1.1-2.8-.3-.3-.5-.6-.6-1.1 0-.6-.4-1-1-1.1-.7-.1-1-.5-1.2-1.1-.5-1-.6-2-.5-3.1zm4.6 18-.4-.4c.1-.7 0-1.3-.1-2 .2.1.3.2.4.3.6.5 1.2 1.1 1.7 1.6.1.1.3.3.2.5-.1.1-.2.2-.3.2-.6.2-1.1.7-1.2 1.3.2-.5 0-1.1-.3-1.5zm-1.2-8.2c0 .9 0 1.9-.1 2.9 0 1.4-.1 2.9-.3 4.2-.4 0-.9-.1-1.4-.1-.9 0-3-.3-3.1-1.6-.1-1.3-.3-2.5-.3-3.8 0-3.2-.1-2.6 2.3-3.8.2-.1.4-.2.7-.4 1-.5 1.4-.4 1.9.5.2.7.3 1.3.3 2.1zm-7.6-7.4c1.2 1 2.5 1.9 3.9 2.5.5.2.9.6 1.3 1.1-.7.7-1.5 1.1-2.3 1.3-.8.1-1.6-.3-2.2-.9-.2-.3-.4-.6-.6-1-.5-1.1-.9-2.3-1.4-3.5.7 0 1 .3 1.3.5zm-5.1 1.8c.4-.4.8-.7 1.2-1.1 1.7-1.8 1.7-1.2 2.4.6.4.9.8 1.9 1.1 2.8v.3c-1.9-.7-3.9-.7-5.9-1.3.3-.6.8-.9 1.2-1.3zm-1.8 3.1c.1-.2.3-.3.8-.4 2.2-.3 4.3.7 6.3 1.3 1.8.5 1.2 1.4 1.2 3.1v3.8c-.7-.1-1-.1-1-.4v-.5c.1-1 .1-2 .1-3 .1-.5.2-1.1.3-1.6 0-.1 0-.2-.1-.3-.8-.4-1.5-.7-2.3-.6-.1 0-.2.1-.2.2-.2.1-.3.3-.4.7-.2.9 0 1.8.1 2.7v1c0 .2-.1.4-.1.5-.2.1-.4-.1-.5-.3-.6-1.1-.2-2.7-.1-3.9.1-1.6-.3-1.6-1.9-1.8-.4 0-.7.1-1.1.1-.3 1.2 0 2.4.2 3.6 0 .2.1.4-.1.7-.6-.1-.9-.4-1.1-1-.2-.9-.2-1.9-.1-2.8 0-.6-.1-.9 0-1.1zm2.1 2.9c-.4-.3-.3-.6-.2-1 .4.3.4.6.2 1zm-7.4-10.5c-.1 1.3 0 2.6 0 3.8h-.1v4.5c0 .3 0 .7-.1 1-.3 1-.4 1-1.4.7-2.6-.8-5.3-1-8-1.2-.6-.1-1.3 0-1.9 0-.6 0-.8-.2-.8-.7 0-1.2-.2-2.3 0-3.5.3-2.4.1-4.9.2-7.3v-.9c0-.6.2-.7.8-.6 1.5.4 3 .6 4.4 1.2 1.4.5 2.8.7 4.4.6 2.1 0 2.7-.5 2.5 2.4zm-8.7-15.5c.1-.4.2-.7.7-.7.4 0 .7.3.7.8 0 .3 0 .7-.1 1 0 .5-.2 1.1.3 1.8-.6-.1-.8-.2-1.1-.2-.1 0-.3-.1-.3-.1.2-.9-.5-1.7-.2-2.6zm-10.6 1.6c.4-.2.8 0 1.2.2 2.7.9 5.5 1.7 8.4 1.9 1.2.1 2.3.3 3.5.5.6.1 1 .4 1.3.9.7 1 1.2 2 1.8 3.1.6 1.2 1.4 2.2 2.3 3.2.1.2.3.3.2.7h-3.3c-.3 0-.4-.2-.4-.5 0-.4-.2-.7-.5-1-1.5-1.2-2.5-2.7-3-4.5-.1-.4-.4-.7-.8-.5-.5.2-.5.5-.3.9.4 1.1.9 2.1 1.6 3.1l1.2 1.8c-.4.3-.5 0-.6-.2-.4-.5-.8-1-1.2-1.4-.8-1-1.5-2.1-1.9-3.3-.2-.5-.3-1.2-1-.9-.7.3-.2.9 0 1.3.4 1.2 1.1 2.2 1.8 3.2-.4.4-.4 0-.6-.2-1.1-1.7-2.3-3.3-3-5.2-.1-.4-.3-.7-.7-.5-.4.2-.4.6-.2.9.4.9 2.8 4.8 2.3 5.4.3-.4-1.2-1.8-1.9-1.8h-.1c-.3.1-.5.2-.8.3-.3-.3-.2-.7-.2-1 0-1.2-.4-1.6-1.6-1.3-.9.3-1 .3-1-.8 0-.6 0-1.2.1-1.8 0-1.1-.3-1.3-1.3-1.1-.1 0-.2.1-.4.1-.7.1-.8.1-.9-.7v-.8zm-7.5 8.8c-.1-.6-.1-1.3-.2-1.9-.1-.7.3-.8.8-.8.4 0 .8.1 1.3.1.7-.1 1-.5.8-1.1-.2-.5-.3-1.1-.5-1.6-.2-.8 0-.9.7-1.2.5-.2.9-.2 1.4-.2.8 0 1.1-.4.9-1.2-.1-.5-.2-1.1-.2-1.6 0-.9 0-.9 1-1.2.3.3-.1.7.1 1 .5.8.5 1.7.4 2.6-.1 1.3.2 1.5 1.3 1.2 1-.3 1.2-.1 1.2 1v2.3c0 .8.2 1.1 1.1.9.5-.1.7.4 1.2.2.2-.1.2.3.3.5.2 1.5.3 1.5 1.7.9.5.8.7 1.6.7 2.6-.1 2.6 0 5.2-.3 7.8-.1 1 0 2 0 3.1 0 .6-.2.9-.8.9-1 0-2 .1-2.9.3-3.9.7-7.9 1.3-11.7 2.2-.9.2-1 .2-1.1-.8-.1-3.4-.4-6.8.2-10.2.2-1.1.3-2.2.3-3.4 0-.9.1-1 1-.8 1.2 0 1.4-.2 1.3-1.6zm-6.7-5.3c.3-.4.7.1 1 .2l.9.6c.1 0 .3.1.4.1.4.2.9.3 1.3.5 1.1.3 1.5 1.1 1.7 2.1.1.3.1.6.1.9.1.9-.4 1.3-1.2.8-.5-.3-.9-.6-1.5-.3-.4.2-.6-.2-.6-.5 0-.4-.1-.9 0-1.3.2-.5.2-1 .1-1.5-.3-.3-.7-.5-1.2-.5-.1.1-.3.1-.4.2-.3.1-.5.1-.6-.3.1-.3-.3-.7 0-1zM77.9 68.6c-.1-1.3 0-1.3 1.2-1.2 1.2.1 1.4-.2 1.1-1.4-.1-.4-.2-.7-.3-1.1-.1-.3-.1-.7-.1-1 0-.5.3-.7.6-.8.5-.2 1.1-.2 1.6-.3.8-.1 1-.4.7-1.1-.2-.8-.1-1.5-.1-2.3 0-.5.2-.8.8-.8h.3c1.9-.2 1.9-.2 1.7-2.2-.1-.6-.1-1.1 0-1.7.1-.5.4-.8.9-.9.4-.1.8 0 .8.5 0 .8.2 1.6.1 2.4-.1 1 .3 1.3 1.2 1 .2-.1.4-.1.6-.2 1.4-.5 1.6-.2 1.4 1.2 0 .2-.1.4-.2.6-.2 1.2.1 1.4 1.3 1.2 1.1-.3 1.3 0 1.2 1.1-.1.5-.2 1-.2 1.5 0 1 .3 1.3 1.3 1.1.2 0 .4-.2.8 0 .1 1.7.1 3.4 0 5.1-.2 2.7-.3 5.4-.2 8.1 0 .9.2 2-.2 2.8-.5.8-1.6.8-2.5 1.1l-6.3 2.4c-.7.3-1.3.7-1.9 1.1-1.6 1.1-3.4 1.8-5 2.7l-.2-.2c-.1-4.1-.3-8.3-.4-12.4 0-1.5-.1-3.1.3-4.6.1-.5-.2-1.1-.3-1.7zm-7.9.6c.2.4.5.6.8.8.4.3.4.7.3 1.2-.3 1.1-.5 2.2-.8 3.3-.1.5 0 .9.5.9.7 0 .8.5.9 1 .1.7.1 1.3 0 2-.3 1.2-.5 2.5-.6 3.8-.1 1-.3 1.8-.9 2.6-.2.2-.5.4-.3.8s.6.3.9.2c1.1-.4 2 .1 2.9.6.5.3.7.8.4 1.3-.9 1.6-1.1 3.4-1.6 5.1-.1.3-.3.5-.2.8.2.6-.1.9-.7.8-.9 0-1.6.6-2.5.6-.9 0-1.5-.6-2.1-1-.3-.2-.1-.7-.1-1.1.1-1.1-.2-1.4-1.3-1.2-.9.2-1.8.3-2.7.1-.8-.2-1.7.2-2.5.5-.6.3-1 .1-1.6-.1-1.1-.4-1.8-1-2.3-2-.3-.5-.8-.5-1.2-.4-.3.1-.6.2-.8.4-1 1.1-2.4 1.4-3.6 2-.7.3-1.4.5-2.2.4-.8 0-1-.3-1-1s.1-1.5-.1-2.2c-.1-.3.1-.5.4-.6.1 0 .2-.1.2-.1 1.5-.2 1.7-1.3 1.9-2.6.4-2.8.1-5.6.3-8.4v-.8c-.2-1-.4-1.2-1.3-1.1-1.3.1-2.6.4-4 .8-1.3.3-1.5 1-1.5 2 0 .5 0 1.1-.5 1.5-.2.1-.2.4-.1.6.6.6.4 1.3.4 1.9 0 .8-.1 1.5-.2 2.3-.1.8.2 1.7.2 2.5.1.9 0 1-.8 1.2-1.3.3-2.6.4-3.8.7-1.1.3-1.6-.2-2.2-1.1-.5-.8-.6-1.6-.2-2.5.4-1 .3-1-.8-1.3-1-.2-1.3-1.6-.6-2.3.4-.4 1-.8 1.5-1.2 1.3-.8 1.5-2.1 1.9-3.4.1-.5-.3-.7-.7-.9-.5-.2-1.1-.1-1.3-.6-.2-.5 0-1.1.1-1.6.2-1.3.7-1.8 2.1-1.6 1.3.2 2.4-.1 3.3-1 .4-.4.7-.4 1.1-.2.8.3 1.5.6 1.9 1.6.2.5.7.9 1.1 1.3.3.3.8.2 1-.1 1-.9 2-.4 3-.3.3 0 .5.3.6.6.3.6.8.9 1.4.7.6-.1.9.2.8.8 0 .7.4.8 1 .8s1.3-.1 1.9-.3c.9-.3 1.3-1.2 1-2.2-.2-.5-.2-.7.3-.9.5-.2 1-.5 1.5-.7 1.1-.5 1.9-1.4 2.5-2.5.8-1.5 2-2.2 3.7-2.1.3 0 .7.1 1 0 .1 1.2.3 1.4 1.4 1 .9-.3 1.8-.1 2.6-.4-.1 0 .2.1.3.3zM46.8 85.8c0-.5.3-.7.7-.8l1.5-.3c.3.8-.1 1.5-.2 2.1-.1.5-1.1 1-1.5.9-.1 0-.2 0-.2-.1-.5-.6-.3-1.2-.3-1.8zm2.4-5.1c.1.1.1.3.2.5.1.7-.1 1.4-.1 2.2 0 .3-.3.4-.5.4-.5.1-1 .2-1.6.4-.2-1.1.1-1.9.2-2.8 0-.5 1.5-1 1.8-.7zm-1.4-3.4c.1-.3.5-.4.9-.4.3 0 .5.2.5.6 0 .3.1.7.2.9 0 .8-1 1.4-1.6 1.2-.1 0-.2-.1-.2-.2 0-.7-.1-1.4.2-2.1zm-2 9.9c0 .3 0 .7-.5.7-.4 0-.8 0-.9-.5l-.3-1.2c0-.5.5-.9 1.1-.9.7 0 .6.4.5.9v.5c.1.1.1.3.1.5zm-.3-2.9c-.4.1-.8.2-1.3.1-.2-.9-.1-1.8 0-2.6 0-.6.3-.8.9-.8h.9c.3 0 .5.2.4.5-.1.8-.2 1.5-.3 2.3-.1.3-.4.4-.6.5zm-.1-4.3c-.3-.1-.9.3-1-.4-.2-.7.2-1.6.7-1.9.2-.1.5-.2.7-.3.7-.2.9 0 .9.7v.6c-.2 1.3-.2 1.3-1.3 1.3zm-7.1-17.1c.6-.4 1.1-.7 1.7 0 .4.5 1.1.5 1.8.5.4-.1.8-.2 1.2-.2.2 2-.7 2.7-2.5 2-.6-.2-1.2-.4-1.2-1.2 0-.6-.6-.7-1-1.1zm30.6 1.8c.4 1-.2 2 .3 3 0 0 0 .2-.1.2-.4.5-1.7.5-2.1 0-.2-.2-.4-.5-.7-.5-2 .1-4 0-5.6 1.7-.3.3-.6.6-.8 1-.4 1.4-1.5 2-2.7 2.5-.3.1-.6.2-.9.4-.9.5-1.1 1.1-.8 2.1.2.6 0 1-.6 1.1-.8.2-1.2 0-1.4-.7-.2-.6-.7-.8-1.2-.7-.6 0-.9-.2-1.3-.6-1.1-1-2.4-1.2-3.8-.8-1.3.4-1.5.4-2-.9-.2-.4-.4-.7-.8-.9-.7-.3-1.5-.5-2.2-.8-.4-.2-.7.2-1 .4-.4.4-.8.8-1.4.9-.3 0-.6 0-.5-.3.3-1.2-.5-2.2-.5-3.4 0-.5-.2-.9-.2-1.4 0-.3.1-.7.5-.5 1 .4 2 .4 3 .4 2.8.2 5.6.8 8.3.4 2.9-.4 5.9-.3 8.8-.8 2.2-.4 4.5-1 6.8-1.1.9-.1 1.8-.6 2.9-.7zm-24.3-1.4c1.2.5 1.2.5 3.4-.1 0 1.4-1 2.5-2.1 2.4-.8 0-1.5-1.1-1.3-2.3zm3.6 2.6c.2-.4.4-.7.8-.4.1 0 .1.2.1.2-.2.5-.6.2-.9.2zm1.2-2.2c1.3.5 2.4.1 3.3-.7.3-.2.5-.3.7 0 .3.4-.1.4-.3.6-.4.7-1 1.2-1.8 1.4-1 .3-1.5 0-1.9-1.3zm14.3-2c.4.3.8.3 1.2 0 .4-.3.7-.2 1 .1.6.5 1.3.9 1.8 1.5-1.5 1-2.1.9-3-.4-.1-.1-.2-.3-.3-.4-.4-.5-.6-.5-.8 0-.1.3-.3.5-.3.8-.2.8-.7 1.2-1.5 1.4-.3.1-.7.1-1 .2-.8.2-1.3 0-1.6-.8-.1-.3-.2-.6-.6-.5-.3.1-.5.3-.6.6-.4 1.1-2 1.7-3 1.4-.3-.1-.6-.3-.7-.6-.1-.3-.3-.5-.1-.8.2-.3.5-.2.7-.1 1.2.2 2.3-.2 3.2-.9.3-.3.6-.6 1.1-.2.9.7 1.8.4 2.7-.2.3-.2.5-.4.8-.7.2-.6.5-.8 1-.4zm-1.8-3.8c-.8-.1-.8-.1-.9-1 .4.2.7.5.9 1zm-4.1-1.5c.3 0 .7-.1 1-.1.7 0 .9.2.8.9-.1.6-.5 1-1 1.3-1 .6-1.7.1-1.7-1.2-.2-.7.3-.8.9-.9zm-.3 3.5c1.2 0 2-.5 2.8-1.5.7 1.3 1.6.7 2.6.5-.4.5-.6 1.1-.7 1.7-.1.7-.8 1.2-1.5 1.3-.7.1-1-.4-1.3-.9-.2-.3-.1-1-.7-.9-.5.1-.5.6-.6 1-.3 1.3-2.6 2-3.6 1.1-.5-.4-.4-1-.5-1.5 0-.2.1-.3.3-.4.2-.1.3-.1.5-.2.6-.2.9-.7 1.3-.9.4.1.8.7 1.4.7zm-5.3-2.5c0-.4.2-.6.6-.6 1 0 1.9-.2 2.9 0 0 .6-.1 1.1-.4 1.6-.4.8-1.2 1.2-2.1 1-.5-.3-1.1-1.2-1-2zm-.7 1.9c.3.1.5.7.9.9.7.4.5.9.3 1.3-.4.7-1 1.1-1.7 1.2-1 0-2-1.3-1.8-2.1.1-.2.2-.2.4-.3.3-.1.6-.2.8-.3.4-.2.7-.8 1.1-.7zm-3.1-2.2c.1-.5.7-.2.9-.4.4.1.8.1 1.2.2.7.1.8.3.6.9-.2.7-.8 1.1-1.4 1.4-.5.2-.9-.1-1.2-.5-.5-.5-.3-1.1-.1-1.6zm-.9 2.3c.3.2.5.4.7.7.1.1.1.2.1.2-.4.5-.2 1.2-.6 1.6-.3.4-.7.6-1.2.7-.9.2-1.6-.7-1.6-1.8-.1-.3.1-.4.4-.5.5-.1 1-.3 1.4-.5.3-.2.5-.5.8-.4zm-3.3-2.7c.2-.2.4-.3.7-.3.7 0 1.4.1 2.1.3.1 1.6-.3 2.2-1.4 2.3-.5.1-1-.1-1.3-.6-.3-.4-.4-1.4-.1-1.7zm-.2 5.6c.1.1.2.2.2.4-.1.1-.2.1-.3.1-.1-.1-.3-.1-.2-.3.1-.2.2-.3.3-.2zm-2.4-5.8c.4.2 1.2-.4 1.2.6 0 .7-.7 1.2-1.5 1.1-.6 0-.8-.3-.7-.9 0-.7.2-.9 1-.8zm-3.7-.6c.5.1 1.2-.1 1.4.6.2.6-1.1 1.7-1.7 1.6-.7-.1-.4-.7-.5-1.1-.1-.9.2-1.2.8-1.1zm-1.4 3c.5.7 1.3.4 2 .1.3-.1.5-.4.9-.6.9 1.2 2 1.2 3.2.7.5-.2 1.3.4 1.3.9 0 1.1-1.4 2.3-2.6 2.1-.5-.1-.8-.4-.9-.9 0-.3.1-.5 0-.8-.1-.4-.3-.6-.7-.7-.4-.1-.6.2-.8.5-.1.2-.1.3-.1.5-.3 1.1-1.6 1.5-2.3.6-.4-.5-.8-.8-1.5-1-.6-.1-1.1-.7-1.4-1.5.6-.1 1-.3 1.4-.4.6 0 1-.1 1.5.5zm-4.1-3.5c.1-.2.3-.3.5-.3.8.1 1.6.2 2.4.4.3.1.5.3.4.6 0 1-.7 1.5-1.9 1.5-1.2.1-1.9-1.1-1.4-2.2zm7.3 68c0 1.3-.3 2.5-.1 3.8v.8c-.1 1.3-.4 2.2-1.9 2.7-2.2.7-4.3 1.2-6.6 1.2-.4 0-3.5-.4-3.5-.5-.2-2.4-.4-4.9-.6-7.3-.3-3.3-.7-6.5-1-9.8-.4-3.7-.7-7.5-1-11.2-.4-4.3-.9-8.7-1.4-13-.4-3.5-.7-7-1.1-10.6-.3-2.9-.3-5.8-.6-8.7-.2-1 .1-1.8 1.1-2.5 2.4-1.8 4-4.3 5.5-7 .8-1.5 1.6-3 2.3-4.5.2 0 .3.1.4.3 1.2 2.6 3.1 4.5 5.3 6.2.2.2.4.3.5.7.5 2.2.8 4.5 1 6.8.1.7-.2 1-.8 1.2-1.2.4-1.8 1.3-1.9 2.6 0 .3-.1.7-.1 1-.1 1.4 0 1.4 1.3 1.9.8.2.7.3.6 1.2-.2.8-.6 1.4-1.3 1.8-.6.3-1 .7-1.5 1.2-1 1.2-.8 3 .6 3.6.7.3.6.7.3 1.1-.5.7-.4 1.2.2 1.8.2.2.3.4.4.7.4.9 1 1.5 2 1.4.7-.1.9.2.9.9 0 .8.1 1.5.1 2.3 0 3.7.5 7.4.6 11.1.2 3.9.4 7.8.4 11.8.1 2.3-.1 4.7-.1 7zm20.1.5c-1.6.5-3.1 1-4.7 1.5-2.3.7-4.5 1.5-6.8 2.2-2.4.7-4.9 1.5-7.2 2.4h-.6c.4-1.2.3-2.4.3-3.5-.1-4.2.3-8.4.2-12.7-.2-4.5-.4-8.9-.8-13.4-.3-3.1-.6-6.1-.2-9.2.1-.5.2-.7.7-.8.4 0 .9-.3 1.3-.5 1.1-.5 2.2-.8 3.4-.8 1 0 1.2.2 1.3 1.1.1.5 0 1 0 1.5 0 1.3.4 1.7 1.7 1.7 2.1 0 4-.6 5.7-1.9.2-.2.5-.4.7-.5.5-.3.9-.4 1.2.3.6 1.3 2 1.5 3.1 2.1.4.2.8 0 1.2-.1.7-.3 1.4-.4 2.1-.5.3.1.2.3.2.4-.1.4-.1.7.3.8.4.1.5-.2.6-.4.5-.9 1.4-.7 2.2-.9.3.3.1.7.1 1 0 .3 0 .7.4.9 1 .5 1.8 1.6 3 1.6.2.2.1.4 0 .5-1.3 2.1-1.2 4 .5 5.8.5.6.6 1 .1 1.5-.3.3-.4.6-.7.9-.7.8-1 1.7-1.2 2.7-.1.5 0 1 .4 1.4.4.5.3.9 0 1.4-.4.5-.7 1-1.3 1.3-.7.4-1.3 1-2 1.5s-1.5.7-2.3.8c-1 .2-1.3.9-1.5 1.7-.2.7.3 1.2 1.1 1.4.3.1.9-.2.9.4.1.5-.5.5-.8.7-1.1.6-2.4 1-3.4 2-.9.9-1 .9 0 1.7.3.2.6.5.9.7.3.1.5.2.5.6-.1.4-.3.6-.6.7zm16.1-7.9c-.2 1.1-.5 2.2-1.2 3.1-.2.3-.6.6-1 .6-1.6.1-2.9.9-4.4 1.2-2.3.6-4.5 1.4-6.8 2-.2 0-.3.1-.6 0 0-.4.1-.8.2-1.2.1-.5-.1-.7-.6-.6-.3.1-.5.3-.8.3-.5.2-.9-.1-1.1-.4-.2-.4.2-.6.5-.8.8-.6 1.7-.9 2.6-1.3.4-.2.9-.4 1.2-.7.6-.8.3-1.7-.7-1.9h-.3c-.4 0-.8 0-.9-.5-.1-.5.3-.9.8-1 1.8-.4 3.2-1.7 4.8-2.6 1-.6 1.4-1.7 1.8-2.7.1-.3.1-.6-.1-.8-.8-.9-.4-1.8.2-2.7.3-.5.6-.9.9-1.4 1.1-1.5 1.1-1.7-.1-3.1-.8-.8-1-1.7-.9-2.8.1-.6.2-1.2 1-1.4.8-.2.8-.9.1-1.7 1-.4 1.7 0 2.4.3.4.2.5.5.4 1-.4 1 0 1.8.5 2.6.6 1 .6 2.2.1 3.2-.6 1.3-.4 2.3.8 3.1.9.6 1.2 1.5 1.7 2.4.1.2.2.5 0 .7-.7.9-.7 2.1-1.3 3-.4.7-.3 1.5.2 2.2.2.6.7 1.2.6 1.9zm1.9 2.4c-.2.1-.5.3-.7.2-.3-.1-.2-.4-.1-.7.2-.4.1-1 .6-1.4.2.6-.2 1.2.3 1.6.1.1 0 .3-.1.3zm3.4-3.6c.1-.4.1-.7.2-1.1.2.4.1.8-.2 1.1zm.2-1.1c.2-.3.1-.8.7-1.1-.4.4-.1 1-.7 1.1zm2.6 0c-.3-.6-.2-.8 0-1.1.3.4-.1.6 0 1.1zm1 2.4c-.2.2-.4.3-.7.1-.1-.1-.1-.2-.1-.3.1-.3.3-.6.4-1l.6.6c.2.3-.1.5-.2.6zm1-5.5c.3-.7.3-1.5.8-2 0 .7-.4 1.4-.8 2zm.9-2.1c-.1-.5 0-.9.5-1.2 0 .4-.2.8-.5 1.2zm.4-1.3c0-.3.1-.7.5-1-.1.4-.1.8-.5 1zm3.2-4.4c-.1.5-.3.8-.6 1.1-.1-.5.1-.8.6-1.1zm-.3 9.6c-.1 0-.2-.1-.2-.1.1-1 .6-1.9 1-2.9.1 0 .2.1.2.1-.3 1-.6 1.9-1 2.9zm1.4-1.3c.7-2.2 1.7-4.3 2.6-6.3.6-1.3 1.3-2.6 1.9-3.9.2-.4.3-.8.9-.9-.7 2.2-2 4.1-2.8 6.2-.9 2.1-1.7 4.1-2.5 6.3-.4-.6-.2-1-.1-1.4zm3.9-4.8c-.1-.1-.2-.1-.2-.2.6-1.3 1.3-2.6 1.9-3.9.4-.9 1.1-1.6 1.1-2.8 0-.6.9-.6 1.7-.7-1.6 2.7-3.1 5.1-4.5 7.6zm5-4.3c-.1.5-.2 1.1-.8 1.4.1-.6.4-1 .8-1.4zm-2.8 3c-.1.3-.3.5-.6.7 0-.5.2-.8.5-.9.2 0 .2.1.1.2zm-3.7 4.4c0-.7.3-1 .7-1.6 0 .8-.2 1.2-.7 1.6zm23.7-5.4c-3.1 1.1-6.2 2.3-9.2 3.5-.5.2-.9.3-1.2-.2-.2-.3-.5-.2-.8-.1-.3.1-.3.4-.1.7.2.4-.1.5-.3.7-.7.3-1.5.6-2.2.9-2.3.9-4.6 1.9-7.1 2.3-1.1.2-2 .5-3 1-.1 0-.2 0-.4-.1 1.4-2 2.8-4 4.5-5.7 1.1.8 1.6.8 2-.2l-.1-.1c-.3-.2-.8.1-1-.3-.1-.2.1-.3.2-.4.4-.2.7-.9 1.3-.5.5.4.9 0 1.4-.1.5-.1.6.8 1.2.7.3 0 .7 0 .9-.3.1-.3-.2-.5-.4-.7l-.3-.3c.4-.3.9-.3 1.3-.5.6-.3 1.2-.4 1.5.5.1.2.4.4.6.3.3-.1.2-.4.3-.7.1-.9.4-1 1.2-.6.5.3 1 .3 1.2-.3.4-1.1 1.3-1 1.9-.9.9.2 1.4-.1 2-.5.1.1.2.1.2.2-.1.4-.1.7.3.9.2.1.4 0 .4-.1.1-.4.7-.6.3-1.1-.1-.1-.4-.3-.1-.5.2-.1.5-.4.7 0 .2.4.5.5.9.4.3-.1.3-.4.4-.7.1-.8.5-1.1 1.2-.8.5.2.9.4 1.5.3 0 .4-.2.5-.3.5-.6.3-.3.6 0 .9.7.5.7.5.9 1.2-.6.4-1.2.5-1.8.7zm-6.1-4.5c.1.9-.1 1.3-.8 1.5-1.5.4-3 .9-4.5 1.4-.9.3-1.9.4-2.8.5 2.5-1.6 5.2-2.5 8.1-3.4zm-3.4-.6c.3-.9.8-1.6 1.6-2.1-.2.9-1 1.4-1.6 2.1zm2-.5c.3-.9 1.1-1.6 2.1-1.8-.6.8-1 1.7-2.1 1.8zm-6.9 2.9c-.3-.4-.1-.6.1-.8.9-1.1 1.9-2.2 2.7-3.4.3-.4.8-.3 1.2-.3-1.5 1.3-2 3.6-4 4.5zm13.5-2.5c-.5.7-2 1.5-3.9 1.9-.2-1.3-.1-1.3 1-1.5 1-.1 1.9-.5 2.9-.4zm-2.8-1.2c0-.2.2-.4.5-.3.1 0 .2.1.2.3-.1.2-.2.2-.4.2-.2-.1-.4-.1-.3-.2zm2.4-.2c.1-.2.3-.3.4-.4.2-.1.4-.1.5.2 0 .2-.2.2-.3.2-.2.1-.4.2-.6 0zm6 4.9c-.2.1-.3.1-.5.2-.5.2-.9.5-1.5-.1-.7-.7-.9-.7-.6-1.7.2-.5 0-.7-.5-.8-.2 0-.4.2-.7-.1.6-.7 1.5-.2 2.1-.6.1-.1.2.1.3.2.4.8 1.7.7 1.9 1.9 0 .4 0 .8-.5 1zm1.3-2c-.6-.6-1.2-1.2-2.1-1.5 1-.3 2.4.4 3.9 1.8-1 .5-1 .4-1.8-.3zm21.3 23c-.7.4-1.3.9-1.9 1.3-.3.2-.6.2-.7-.1-.2-.5-.5-1-.7-1.6-1-3.6-2.1-7.1-4.1-10.3-1.7-2.7-3.4-5.3-5.2-7.9-.7-.9-1.6-1.5-2.4-2.3-1.8-1.5-3.6-3-5.6-4.3-1.9-1.2-4-1.7-6.2-2.2-2.8-.6-5.7-.6-8.6-.6-.8 0-1.6.1-2.4.2-3.6.4-7.1 1.5-10.5 2.9-1.4.6-2.7 1.1-4.1 1.7-1.6.7-3 1.6-4.4 2.6-2.2 1.6-4.4 3.1-6.3 4.9-1 1-1.9 2.1-2.6 3.3-.6 1.2-1.4 2.3-2 3.4-.3.6-.5.5-.9 0-.7-.9-.8-1.7-.3-2.7.4-.7.5-1.6 1-2.3.3-.5.3-1.1 0-1.6-.5-1-1.1-2-2.1-2.7-.8-.7-.9-.7-.4-1.7.7-1.6.6-3.1-.3-4.5-.3-.5-.4-1-.2-1.6.2-.7.1-1.3-.4-1.9-.6-.7-.5-1.1-.1-1.9.8-1.5 2.1-2.5 3.4-3.5 1.6-1.3 3.4-2.3 5.2-3.2.6-.3 1.2-.7 1.7-1.1 2.1-1.3 4.5-2.2 6.9-3 1.5-.5 2.9-1.1 4.4-1.5 2.9-.8 5.9-1.2 8.8-1.8 3.3-.8 6.6-.8 9.7-1.2 4.1.2 7.9.7 11.6 1.8 2.9.9 5.7 1.9 8.5 3.1 2.5 1 4.9 2.3 7.4 3.4 1 .4 1.9.9 2.9 1.3.5.2.7.5.7.9 0 1.1.2 2.2-.2 3.3-.4.9-.5 2 .1 3 .1.2.2.5.2.7-.2 2.1.4 4.2.3 6.4 0 .6 0 1.3.1 1.9.1.9.2 1.8-.3 2.6-.3.4-.2 1 0 1.5.5 1.4.5 2.9.5 4.4l.3 9.3c-.1.8-.3 1.2-.8 1.6zm8.7-4.6c-2 1.1-3.9 2.1-5.9 3.1-.8.4-.9.3-1-.6-.1-3-.2-6-.3-9.2.8 0 1.2.4 1.6.9 1.7 2.4 3.9 3.8 6.8 4.2.1 0 .1.1.3.2-.3.7-.9 1.1-1.5 1.4zm5 12.4c0 .2 0 .4-.1.5-.2.3-.1.9-.6.8-.5-.1-.2-.6-.2-1 .2-1.6.4-3.2.5-4.8 0-.4.1-.7.3-1 .1 1.8.1 3.7.1 5.5zm.8-19.8c.3 2.2-.9 4.2-.8 6.3 0 .1-.1.2-.1.3h-.3c-.4-1-1.2-1.4-2.3-1.6-1.5-.3-3.1-.5-4.5-1.4-.7-.5-1.5-1-2.1-1.7-.7-.9-1.4-1.8-2.3-2.4-.1 0-.3 0-.4-.1-.5-.3-.6-.9-.7-1.4-.1-.8-.3-1.6-.1-2.4.1-.6.4-1 .7-1.5 0-.1.1-.3.2-.4.7-1.3.7-2.7 0-4-.5-1-.7-2-.7-3.1v-1.4c-.3-.7-.5-1.4-.6-2.1-.1-1.3 0-2.4.6-3.4.1-1.3 1-1.9 1.9-2.7.3-.3.7-.2 1.1-.1 1.1.2 2.2.4 3.4.6.3.1.5.1.7-.1 2.4-1.3 4.9-1.2 7.4-.7 1.7.4 3.3 1 4.4 2.6.1.2.3.3.5.4 1.6.2 2.5 1.5 3.8 2.2.2.1.3.3.5.4 1.9.6 2.6 2.1 3.1 3.9.3 1.2.3 2.4-.4 3.6-.7 1.3-1 2.7-1.3 4.1-.1.8-.1 1.6.4 2.3.8 1.1.4 2.1-.2 3.1-1 1.5-2.2 2.8-3.6 4-.4.4-.9.6-1.4.9-3.9 1.8-3.7 1.4-5.8 5.3.4-1.9.3-3.9.4-5.8.1-1.2-.2-2.4-.2-3.6 0-.1 0-.3-.1-.4-.2-.3-.3-.6-.8-.5-.2.2-.4.5-.4.8z" data-color="1" class="icon1"></path><path d="M148.9 75.4c1.1.9 2.4.9 3.7.7.1 0 .2-.2.2-.3 0-.1-.1-.3-.2-.3-.2-.1-.4 0-.6-.1-1.3-.1-2.4-.5-3.3-1.5-.3-.3-.6-.6-.9-.8-.6-.5-.8-1.1-.6-1.9.3-.8.5-1.6.7-2.4.1-.4.3-.8 0-1.4-1.1 1.1-.9 2.7-1.8 3.9-.4-.5-.7-1-.9-1.5-.2-.5.1-1.2-.6-1.6-.3 1.4.1 2.6.7 3.6 1.1 1.5 2.4 2.5 3.6 3.6z" data-color="1" class="icon1"></path><path d="M149.8 79.8c-.2 0-.3-.1-.5-.2-.4-.1-1-.6-1.2 0-.2.5.6.5 1 .8.1.1.3.1.5.1.4-.1.8 0 .8-.5 0-.3-.4-.1-.6-.2z" data-color="1" class="icon1"></path></g></g>
</svg>
</g><g opacity="1" transform="rotate(0 707.5049 611.3812)">
<svg width="152.0293" height="22.8" x="707.5049" y="611.3812" version="1.1" preserveAspectRatio="none" viewBox="1.8 -29.68 200.83999999999997 30.12">
  <g transform="matrix(1 0 0 1 0 0)" class="text"><path id="id-6izo4zJp9" d="M26.84-2.12L24.68 0.44L20.96-3.28Q17.24 0.32 11.60 0.32L11.60 0.32Q8.80 0.32 6.56-0.60Q4.32-1.52 3.06-3.18Q1.80-4.84 1.80-6.96L1.80-6.96Q1.80-9.52 3.38-11.50Q4.96-13.48 8.60-15.56L8.60-15.56Q6.76-17.40 6-18.88Q5.24-20.36 5.24-21.96L5.24-21.96Q5.24-24.80 7.30-26.52Q9.36-28.24 12.80-28.24L12.80-28.24Q16-28.24 17.88-26.68Q19.76-25.12 19.76-22.40L19.76-22.40Q19.76-20.28 18.38-18.60Q17-16.92 13.80-15.08L13.80-15.08L20.72-8.20Q21.92-10.48 22.44-13.28L22.44-13.28L25.52-12.28Q24.80-8.60 23.08-5.88L23.08-5.88L26.84-2.12ZM12.80-25.44Q10.92-25.44 9.86-24.50Q8.80-23.56 8.80-22.04L8.80-22.04Q8.80-20.96 9.38-19.96Q9.96-18.96 11.64-17.24L11.64-17.24Q14.40-18.80 15.46-19.92Q16.52-21.04 16.52-22.36L16.52-22.36Q16.52-23.76 15.54-24.60Q14.56-25.44 12.80-25.44L12.80-25.44ZM11.84-2.88Q16-2.88 18.68-5.52L18.68-5.52L10.72-13.44Q7.84-11.84 6.70-10.46Q5.56-9.08 5.56-7.36L5.56-7.36Q5.56-5.36 7.30-4.12Q9.04-2.88 11.84-2.88L11.84-2.88Z M60.56-4L61.76-1.24Q60.92-0.52 59.68-0.14Q58.44 0.24 57.12 0.24L57.12 0.24Q53.92 0.24 52.16-1.48Q50.40-3.20 50.40-6.40L50.40-6.40L50.40-18.04L46.80-18.04L46.80-21.20L50.40-21.20L50.40-25.84L54.24-25.84L54.24-21.20L60.32-21.20L60.32-18.04L54.24-18.04L54.24-6.56Q54.24-4.84 55.10-3.92Q55.96-3 57.56-3L57.56-3Q59.32-3 60.56-4L60.56-4Z M74.08-17.64Q75.08-19.48 77.04-20.44Q79-21.40 81.80-21.40L81.80-21.40L81.80-17.68Q81.48-17.72 80.92-17.72L80.92-17.72Q77.80-17.72 76.02-15.86Q74.24-14 74.24-10.56L74.24-10.56L74.24 0L70.40 0L70.40-21.20L74.08-21.20L74.08-17.64Z M98.20-21.40Q102.60-21.40 104.94-19.24Q107.28-17.08 107.28-12.80L107.28-12.80L107.28 0L103.64 0L103.64-2.80Q102.68-1.32 100.90-0.54Q99.12 0.24 96.68 0.24L96.68 0.24Q93.12 0.24 90.98-1.48Q88.84-3.20 88.84-6L88.84-6Q88.84-8.80 90.88-10.50Q92.92-12.20 97.36-12.20L97.36-12.20L103.44-12.20L103.44-12.96Q103.44-15.44 102-16.76Q100.56-18.08 97.76-18.08L97.76-18.08Q95.88-18.08 94.08-17.46Q92.28-16.84 91.04-15.80L91.04-15.80L89.44-18.68Q91.08-20 93.36-20.70Q95.64-21.40 98.20-21.40L98.20-21.40ZM97.32-2.72Q99.52-2.72 101.12-3.70Q102.72-4.68 103.44-6.48L103.44-6.48L103.44-9.44L97.52-9.44Q92.64-9.44 92.64-6.16L92.64-6.16Q92.64-4.56 93.88-3.64Q95.12-2.72 97.32-2.72L97.32-2.72Z M133-21.20L136.76-21.20L127.48 0L123.56 0L114.28-21.20L118.28-21.20L125.56-4.20L133-21.20Z M162.92-10.48Q162.92-10.04 162.84-9.32L162.84-9.32L145.64-9.32Q146-6.52 148.10-4.82Q150.20-3.12 153.32-3.12L153.32-3.12Q157.12-3.12 159.44-5.68L159.44-5.68L161.56-3.20Q160.12-1.52 157.98-0.64Q155.84 0.24 153.20 0.24L153.20 0.24Q149.84 0.24 147.24-1.14Q144.64-2.52 143.22-5Q141.80-7.48 141.80-10.60L141.80-10.60Q141.80-13.68 143.18-16.16Q144.56-18.64 146.98-20.02Q149.40-21.40 152.44-21.40L152.44-21.40Q155.48-21.40 157.86-20.02Q160.24-18.64 161.58-16.16Q162.92-13.68 162.92-10.48L162.92-10.48ZM152.44-18.16Q149.68-18.16 147.82-16.48Q145.96-14.80 145.64-12.08L145.64-12.08L159.24-12.08Q158.92-14.76 157.06-16.46Q155.20-18.16 152.44-18.16L152.44-18.16Z M172.24 0L172.24-29.68L176.08-29.68L176.08 0L172.24 0Z M193.48 0.24Q190.88 0.24 188.48-0.46Q186.08-1.16 184.72-2.24L184.72-2.24L186.32-5.28Q187.72-4.28 189.72-3.68Q191.72-3.08 193.76-3.08L193.76-3.08Q198.80-3.08 198.80-5.96L198.80-5.96Q198.80-6.92 198.12-7.48Q197.44-8.04 196.42-8.30Q195.40-8.56 193.52-8.88L193.52-8.88Q190.96-9.28 189.34-9.80Q187.72-10.32 186.56-11.56Q185.40-12.80 185.40-15.04L185.40-15.04Q185.40-17.92 187.80-19.66Q190.20-21.40 194.24-21.40L194.24-21.40Q196.36-21.40 198.48-20.88Q200.60-20.36 201.96-19.48L201.96-19.48L200.32-16.44Q197.72-18.12 194.20-18.12L194.20-18.12Q191.76-18.12 190.48-17.32Q189.20-16.52 189.20-15.20L189.20-15.20Q189.20-14.16 189.92-13.56Q190.64-12.96 191.70-12.68Q192.76-12.40 194.68-12.04L194.68-12.04Q197.24-11.60 198.82-11.10Q200.40-10.60 201.52-9.40Q202.64-8.20 202.64-6.04L202.64-6.04Q202.64-3.16 200.18-1.46Q197.72 0.24 193.48 0.24L193.48 0.24Z"/></g>
</svg>
</g><g opacity="1" transform="rotate(0 707.5049 529.3812)">
<svg width="368.5997" height="60" x="707.5049" y="529.3812" version="1.1" preserveAspectRatio="none" viewBox="2.44 -32.16 245.24 39.92">
  <g transform="matrix(1 0 0 1 0 0)" class="companyName"><path id="id-D6z1nYkh11" d="M16.08-22.04Q19.04-22.04 21.46-20.66Q23.88-19.28 25.30-16.74Q26.72-14.20 26.72-10.84L26.72-10.84Q26.72-7.48 25.30-4.94Q23.88-2.40 21.46-1.02Q19.04 0.36 16.08 0.36L16.08 0.36Q12.28 0.36 10.04-1.92L10.04-1.92L10.04 7.76L2.44 7.76L2.44-21.68L9.68-21.68L9.68-19.52Q11.80-22.04 16.08-22.04L16.08-22.04ZM14.48-5.68Q16.48-5.68 17.76-7.06Q19.04-8.44 19.04-10.84L19.04-10.84Q19.04-13.24 17.76-14.62Q16.48-16 14.48-16L14.48-16Q12.48-16 11.20-14.62Q9.92-13.24 9.92-10.84L9.92-10.84Q9.92-8.44 11.20-7.06Q12.48-5.68 14.48-5.68L14.48-5.68Z M37.48-19.08Q38.64-20.56 40.50-21.30Q42.36-22.04 44.76-22.04L44.76-22.04L44.76-15.20Q43.72-15.32 43.04-15.32L43.04-15.32Q40.60-15.32 39.22-14Q37.84-12.68 37.84-9.96L37.84-9.96L37.84 0L30.24 0L30.24-21.68L37.48-21.68L37.48-19.08Z M47.88 0L47.88-21.68L55.48-21.68L55.48 0L47.88 0ZM51.68-24.08Q49.60-24.08 48.32-25.24Q47.04-26.40 47.04-28.12L47.04-28.12Q47.04-29.84 48.32-31Q49.60-32.16 51.68-32.16L51.68-32.16Q53.76-32.16 55.04-31.06Q56.32-29.96 56.32-28.24L56.32-28.24Q56.32-26.44 55.04-25.26Q53.76-24.08 51.68-24.08L51.68-24.08Z M88.64-22.04Q92.64-22.04 95.02-19.64Q97.40-17.24 97.40-12.40L97.40-12.40L97.40 0L89.80 0L89.80-11.16Q89.80-13.44 88.94-14.52Q88.08-15.60 86.52-15.60L86.52-15.60Q84.80-15.60 83.76-14.40Q82.72-13.20 82.72-10.76L82.72-10.76L82.72 0L75.12 0L75.12-11.16Q75.12-15.60 71.84-15.60L71.84-15.60Q70.08-15.60 69.04-14.40Q68-13.20 68-10.76L68-10.76L68 0L60.40 0L60.40-21.68L67.64-21.68L67.64-19.40Q68.84-20.72 70.50-21.38Q72.16-22.04 74.12-22.04L74.12-22.04Q76.40-22.04 78.20-21.20Q80-20.36 81.12-18.64L81.12-18.64Q82.40-20.28 84.36-21.16Q86.32-22.04 88.64-22.04L88.64-22.04Z M124.68-10.80Q124.68-10.72 124.56-8.92L124.56-8.92L108.80-8.92Q109.28-7.24 110.66-6.34Q112.04-5.44 114.12-5.44L114.12-5.44Q115.68-5.44 116.82-5.88Q117.96-6.32 119.12-7.32L119.12-7.32L123.12-3.16Q119.96 0.36 113.88 0.36L113.88 0.36Q110.08 0.36 107.20-1.08Q104.32-2.52 102.74-5.08Q101.16-7.64 101.16-10.88L101.16-10.88Q101.16-14.08 102.70-16.62Q104.24-19.16 106.96-20.60Q109.68-22.04 113.08-22.04L113.08-22.04Q116.32-22.04 118.96-20.70Q121.60-19.36 123.14-16.82Q124.68-14.28 124.68-10.80L124.68-10.80ZM113.12-16.64Q111.36-16.64 110.18-15.64Q109.00-14.64 108.68-12.92L108.68-12.92L117.56-12.92Q117.24-14.64 116.06-15.64Q114.88-16.64 113.12-16.64L113.12-16.64Z M152.92-6.20L154.80-0.88Q153.84-0.28 152.46 0.04Q151.08 0.36 149.52 0.36L149.52 0.36Q145.28 0.36 143.00-1.72Q140.72-3.80 140.72-7.92L140.72-7.92L140.72-15.20L137.56-15.20L137.56-20.88L140.72-20.88L140.72-26.52L148.32-26.52L148.32-20.88L153.28-20.88L153.28-15.20L148.32-15.20L148.32-8Q148.32-6.84 148.94-6.18Q149.56-5.52 150.60-5.52L150.60-5.52Q151.92-5.52 152.92-6.20L152.92-6.20Z M167.96 0.36Q164.48 0.36 161.68-1.08Q158.88-2.52 157.30-5.08Q155.72-7.64 155.72-10.88L155.72-10.88Q155.72-14.08 157.30-16.64Q158.88-19.20 161.66-20.62Q164.44-22.04 167.96-22.04L167.96-22.04Q171.48-22.04 174.28-20.62Q177.08-19.20 178.64-16.66Q180.20-14.12 180.20-10.88L180.20-10.88Q180.20-7.64 178.64-5.08Q177.08-2.52 174.28-1.08Q171.48 0.36 167.96 0.36L167.96 0.36ZM167.96-5.68Q169.96-5.68 171.24-7.06Q172.52-8.44 172.52-10.88L172.52-10.88Q172.52-13.28 171.24-14.64Q169.96-16 167.96-16L167.96-16Q165.96-16 164.68-14.64Q163.40-13.28 163.40-10.88L163.40-10.88Q163.40-8.44 164.68-7.06Q165.96-5.68 167.96-5.68L167.96-5.68Z M198.92-21.68L206.52-21.68L206.52 0L199.28 0L199.28-2.32Q198.08-1 196.40-0.32Q194.72 0.36 192.84 0.36L192.84 0.36Q188.64 0.36 186.14-2.12Q183.64-4.60 183.64-9.56L183.64-9.56L183.64-21.68L191.24-21.68L191.24-10.80Q191.24-8.36 192.16-7.24Q193.08-6.12 194.84-6.12L194.84-6.12Q196.64-6.12 197.78-7.38Q198.92-8.64 198.92-11.24L198.92-11.24L198.92-21.68Z M218.64-19.08Q219.80-20.56 221.66-21.30Q223.52-22.04 225.92-22.04L225.92-22.04L225.92-15.20Q224.88-15.32 224.20-15.32L224.20-15.32Q221.76-15.32 220.38-14Q219.00-12.68 219.00-9.96L219.00-9.96L219.00 0L211.40 0L211.40-21.68L218.64-21.68L218.64-19.08Z M236.96 0.36Q234.24 0.36 231.60-0.26Q228.96-0.88 227.36-1.88L227.36-1.88L229.64-7.08Q231.12-6.16 233.16-5.62Q235.20-5.08 237.20-5.08L237.20-5.08Q239.04-5.08 239.82-5.46Q240.60-5.84 240.60-6.56L240.60-6.56Q240.60-7.28 239.66-7.58Q238.72-7.88 236.68-8.16L236.68-8.16Q234.08-8.48 232.26-9Q230.44-9.52 229.12-10.92Q227.80-12.32 227.80-14.84L227.80-14.84Q227.80-16.92 229.04-18.54Q230.28-20.16 232.66-21.10Q235.04-22.04 238.36-22.04L238.36-22.04Q240.72-22.04 243.04-21.56Q245.36-21.08 246.92-20.20L246.92-20.20L244.64-15.04Q241.76-16.64 238.40-16.64L238.40-16.64Q236.60-16.64 235.76-16.22Q234.92-15.80 234.92-15.12L234.92-15.12Q234.92-14.36 235.84-14.06Q236.76-13.76 238.88-13.44L238.88-13.44Q241.56-13.04 243.32-12.52Q245.08-12 246.38-10.62Q247.68-9.24 247.68-6.76L247.68-6.76Q247.68-4.72 246.44-3.10Q245.20-1.48 242.78-0.56Q240.36 0.36 236.96 0.36L236.96 0.36Z"/></g>
</svg>
</g></svg></svg>